#N canvas 1 88 1234 708 10;
#X obj 84 336 pix_texture;
#X obj 520 228 gemwin;
#X msg 516 96 create \, 1;
#X msg 582 96 destroy;
#X msg 647 215 dimen 1024 768;
#X obj 72 193 pix_image;
#X msg 206 272 quality \$1;
#X obj 206 253 tgl 15 0 empty empty empty 0 -6 0 8 -262144 -1 -1 0
1;
#X msg 205 314 env \$1;
#X obj 206 294 hradio 15 1 0 6 empty empty empty 0 -6 0 8 -262144 -1
-1 0;
#X msg 584 169 dimen 512 512;
#X msg 331 516 8;
#X msg 302 517 16;
#X obj 88 448 translateXYZ;
#X floatatom 160 406 5 0 0 0 - - -;
#X floatatom 220 468 5 0 0 0 - - -;
#X msg 709 122 minlat -25.4561 \, minlon -49.3132 \, maxlat -25.4446
\, maxlon -49.2861;
#X obj 283 670 rectangle;
#X floatatom 255 636 10 0 0 0 - - -;
#X floatatom 335 643 5 0 0 0 - - -;
#X obj 713 198 route minlat minlon maxlat maxlon;
#X floatatom 680 249 10 0 0 0 - - -;
#X floatatom 748 250 10 0 0 0 - - -;
#X floatatom 818 250 10 0 0 0 - - -;
#X floatatom 886 251 10 0 0 0 - - -;
#X obj 740 314 -;
#X floatatom 735 344 10 0 0 0 - - -;
#X obj 854 305 -;
#X floatatom 849 335 10 0 0 0 - - -;
#X obj 743 458 autoscale 0 0.0115013;
#X floatatom 742 435 5 0 2048 0 - - -;
#X floatatom 746 485 10 0 0 0 - - -;
#X obj 731 525 + -25.2561;
#X floatatom 728 557 10 0 0 0 - - -;
#X obj 746 410 hsl 128 15 0 2048 0 0 empty empty empty -2 -8 0 10 -262144
-1 -1 0 1;
#X floatatom 896 428 5 0 962 0 - - -;
#X floatatom 900 478 10 0 0 0 - - -;
#X floatatom 882 550 10 0 0 0 - - -;
#X obj 900 403 hsl 128 15 0 962 0 0 empty empty empty -2 -8 0 10 -262144
-1 -1 0 1;
#X obj 897 451 autoscale 0 0.0271034;
#X obj 885 519 + -49.3132;
#X msg 579 118 dimen 2048 962;
#X obj 389 549 / 962;
#X msg 389 522 2048;
#X obj 299 596 * 2.1289;
#X obj 302 572 t f f;
#X floatatom 303 546 5 0 0 0 - - -;
#X obj 189 373 hsl 128 15 13 -13 0 0 empty empty empty -2 -8 0 10 -262144
-1 -1 0 1;
#X obj 259 413 vsl 15 128 -4 4 0 0 empty empty empty 0 -9 0 10 -262144
-1 -1 0 1;
#X msg 396 586 2048;
#X obj 396 613 / 512;
#X msg 586 146 dimen 1024 1024;
#X msg 664 189 dimen 1280 800;
#X msg 658 236 dimen 1280 768;
#X msg 545 60 dimen 1280 256;
#X obj 269 105 gemhead 2;
#X obj 61 112 gemhead 1;
#X msg 154 138 open japao.png;
#X obj 301 231 color;
#X obj 301 256 circle 0.25;
#X obj 318 159 translateXYZ;
#X obj 334 75 hsl 128 15 4 -4 0 0 empty empty empty -2 -8 0 10 -262144
-1 -1 0 1;
#X obj 465 8 vsl 15 128 -4 4 0 0 empty empty empty 0 -9 0 10 -262144
-1 -1 0 1;
#N canvas 151 481 450 300 controla_bola 0;
#X obj -48 196 outlet;
#X obj 10 192 outlet;
#X obj 124 -5 gemmouse;
#X floatatom 124 139 9 0 0 1 X-position - -;
#X floatatom 136 111 8 0 0 1 Y-position - -;
#X floatatom -10 38 2 0 0 1 left-Button - -;
#X floatatom 162 65 2 0 0 1 middle-Button - -;
#X floatatom 175 45 2 0 0 1 right-Button - -;
#X obj 21 85 / 512;
#X obj 20 130 - 4;
#X obj 23 107 * 8;
#X obj 12 152 * -1;
#X obj -46 99 / 512;
#X obj -47 144 - 4;
#X obj -44 121 * 8;
#X obj -48 169 spigot;
#X obj 13 169 spigot;
#X obj -16 60 t f f;
#X connect 2 0 3 0;
#X connect 2 1 4 0;
#X connect 2 2 5 0;
#X connect 2 3 6 0;
#X connect 2 4 7 0;
#X connect 3 0 12 0;
#X connect 4 0 8 0;
#X connect 5 0 17 0;
#X connect 8 0 10 0;
#X connect 9 0 11 0;
#X connect 10 0 9 0;
#X connect 11 0 16 0;
#X connect 12 0 14 0;
#X connect 13 0 15 0;
#X connect 14 0 13 0;
#X connect 15 0 0 0;
#X connect 16 0 1 0;
#X connect 17 0 15 1;
#X connect 17 1 16 1;
#X restore 348 107 pd controla_bola;
#X obj 470 330 gemmouse;
#X floatatom 470 474 9 0 0 1 X-position - -;
#X floatatom 482 446 8 0 0 1 Y-position - -;
#X obj 361 442 / 512;
#X obj 357 413 * 26;
#X obj 364 471 - 13;
#X obj 460 503 > 512;
#X obj 394 399 % 512;
#X obj 413 485 spigot;
#X obj 410 339 - 4;
#X obj 385 316 route 0 1;
#X obj 385 288 pack f f;
#X msg 325 193 0.25 1 0.35;
#X connect 0 0 13 0;
#X connect 2 0 1 0;
#X connect 3 0 1 0;
#X connect 4 0 1 0;
#X connect 5 0 0 0;
#X connect 6 0 0 0;
#X connect 7 0 6 0;
#X connect 8 0 0 0;
#X connect 9 0 8 0;
#X connect 10 0 1 0;
#X connect 11 0 46 0;
#X connect 12 0 46 0;
#X connect 13 0 17 0;
#X connect 14 0 13 1;
#X connect 15 0 13 2;
#X connect 16 0 20 0;
#X connect 18 0 17 1;
#X connect 19 0 17 2;
#X connect 20 0 21 0;
#X connect 20 1 22 0;
#X connect 20 2 23 0;
#X connect 20 3 24 0;
#X connect 21 0 25 0;
#X connect 22 0 27 0;
#X connect 23 0 25 1;
#X connect 24 0 27 1;
#X connect 25 0 26 0;
#X connect 27 0 28 0;
#X connect 29 0 31 0;
#X connect 30 0 29 0;
#X connect 31 0 32 0;
#X connect 32 0 33 0;
#X connect 34 0 30 0;
#X connect 35 0 39 0;
#X connect 36 0 40 0;
#X connect 38 0 35 0;
#X connect 39 0 36 0;
#X connect 40 0 37 0;
#X connect 41 0 1 0;
#X connect 43 0 42 0;
#X connect 44 0 18 0;
#X connect 45 0 44 0;
#X connect 45 1 19 0;
#X connect 46 0 45 0;
#X connect 47 0 14 0;
#X connect 48 0 15 0;
#X connect 49 0 50 0;
#X connect 50 0 46 0;
#X connect 51 0 1 0;
#X connect 52 0 1 0;
#X connect 53 0 1 0;
#X connect 54 0 1 0;
#X connect 55 0 60 0;
#X connect 56 0 5 0;
#X connect 57 0 5 0;
#X connect 58 0 59 0;
#X connect 60 0 58 0;
#X connect 61 0 60 1;
#X connect 62 0 60 2;
#X connect 63 0 75 1;
#X connect 63 1 60 2;
#X connect 64 0 65 0;
#X connect 64 1 66 0;
#X connect 65 0 70 0;
#X connect 65 0 71 0;
#X connect 67 0 69 0;
#X connect 68 0 67 0;
#X connect 69 0 47 0;
#X connect 70 0 72 1;
#X connect 70 0 75 0;
#X connect 71 0 72 0;
#X connect 72 0 68 0;
#X connect 73 0 60 1;
#X connect 74 0 60 1;
#X connect 74 1 73 0;
#X connect 75 0 74 0;
#X connect 76 0 58 1;
