#N canvas 186 88 571 540 10;
#X obj 44 177 textfile;
#X msg 48 54 rewind;
#X msg 68 74 bang;
#X msg 96 142 print;
#X msg 73 107 read feira.txt cr;
#X obj 279 115 gemhead 2;
#X obj 328 169 translateXYZ;
#X obj 354 102 hsl 50 10 4 -4 0 0 empty empty empty -2 -8 0 10 -262144
-1 -1 3600 1;
#X obj 485 116 vsl 10 50 -4 4 0 0 empty empty empty 0 -9 0 10 -262144
-1 -1 2100 1;
#N canvas 151 481 450 300 controla_bola 0;
#X obj -48 196 outlet;
#X obj 10 192 outlet;
#X obj 124 -5 gemmouse;
#X floatatom 124 139 9 0 0 1 X-position - -;
#X floatatom 136 111 8 0 0 1 Y-position - -;
#X floatatom -10 38 2 0 0 1 left-Button - -;
#X floatatom 162 65 2 0 0 1 middle-Button - -;
#X floatatom 175 45 2 0 0 1 right-Button - -;
#X obj 21 85 / 512;
#X obj 20 130 - 4;
#X obj 23 107 * 8;
#X obj 12 152 * -1;
#X obj -46 99 / 512;
#X obj -47 144 - 4;
#X obj -44 121 * 8;
#X obj -48 169 spigot;
#X obj 13 169 spigot;
#X obj -16 60 t f f;
#X connect 2 0 3 0;
#X connect 2 1 4 0;
#X connect 2 2 5 0;
#X connect 2 3 6 0;
#X connect 2 4 7 0;
#X connect 3 0 12 0;
#X connect 4 0 8 0;
#X connect 5 0 17 0;
#X connect 8 0 10 0;
#X connect 9 0 11 0;
#X connect 10 0 9 0;
#X connect 11 0 16 0;
#X connect 12 0 14 0;
#X connect 13 0 15 0;
#X connect 14 0 13 0;
#X connect 15 0 0 0;
#X connect 16 0 1 0;
#X connect 17 0 15 1;
#X connect 17 1 16 1;
#X restore 365 134 pd controla_bola;
#X obj -19 475 gemwin;
#X msg -23 343 create \, 1;
#X msg 43 343 destroy;
#X msg 117 459 dimen 1024 768;
#X msg 98 342 dimen 512 512;
#X msg 120 396 dimen 2048 962;
#X msg 119 417 dimen 1024 1024;
#X msg 118 438 dimen 1280 800;
#X msg 117 483 dimen 1280 768;
#X msg 118 504 dimen 1280 256;
#X obj 310 241 color 0.25 1 0.35;
#X obj 311 266 circle 0.15;
#X obj 44 210 route latitude longitude;
#X floatatom 37 248 10 0 0 0 - - -;
#X floatatom 109 247 10 0 0 0 - - -;
#X obj 109 194 bng 15 250 50 0 empty empty empty 17 7 0 10 -262144
-1 -1;
#X connect 0 0 22 0;
#X connect 0 1 25 0;
#X connect 1 0 0 0;
#X connect 2 0 0 0;
#X connect 3 0 0 0;
#X connect 4 0 0 0;
#X connect 5 0 6 0;
#X connect 6 0 20 0;
#X connect 7 0 6 1;
#X connect 8 0 6 2;
#X connect 9 0 6 1;
#X connect 9 1 6 2;
#X connect 11 0 10 0;
#X connect 12 0 10 0;
#X connect 13 0 10 0;
#X connect 14 0 10 0;
#X connect 15 0 10 0;
#X connect 16 0 10 0;
#X connect 17 0 10 0;
#X connect 18 0 10 0;
#X connect 19 0 10 0;
#X connect 20 0 21 0;
#X connect 22 0 23 0;
#X connect 22 1 24 0;
