#N canvas 146 242 772 435 10;
#X obj 22 79 pix_texture;
#X obj 55 270 gemwin;
#X msg 29 241 create \, 1;
#X msg 95 241 destroy;
#X obj 23 52 pix_image;
#X obj 23 105 translateXYZ;
#X obj 129 -15 gemhead 2;
#X obj 24 -12 gemhead 1;
#X obj 318 159 translateXYZ;
#X obj 598 48 hsl 128 15 -5.75 5.75 0 0 empty empty empty -2 -8 0 10
-262144 -1 -1 0 1;
#X obj 697 -30 vsl 15 128 -4 4 0 0 empty empty empty 0 -9 0 10 -262144
-1 -1 0 1;
#N canvas 526 300 450 300 controla_bola 0;
#X obj -48 196 outlet;
#X obj 10 192 outlet;
#X obj 124 -5 gemmouse;
#X floatatom 124 139 9 0 0 1 X-position - -;
#X floatatom 136 111 8 0 0 1 Y-position - -;
#X floatatom -10 38 2 0 0 1 left-Button - -;
#X floatatom 162 65 2 0 0 1 middle-Button - -;
#X floatatom 175 45 2 0 0 1 right-Button - -;
#X obj -48 169 spigot;
#X obj 13 169 spigot;
#X obj -16 60 t f f;
#X floatatom -39 117 5 0 0 0 - - -;
#X floatatom 17 234 5 0 0 0 - - -;
#X obj 124 176 / 1000;
#X obj 125 212 - 5.75;
#X obj 125 195 * 11.5;
#X obj 186 180 / 700;
#X obj 187 199 * 8;
#X obj 187 216 - 4;
#X floatatom 13 145 5 0 0 0 - - -;
#X obj 188 235 * -1;
#X connect 2 0 3 0;
#X connect 2 1 4 0;
#X connect 2 2 5 0;
#X connect 2 3 6 0;
#X connect 2 4 7 0;
#X connect 3 0 13 0;
#X connect 4 0 16 0;
#X connect 5 0 10 0;
#X connect 8 0 0 0;
#X connect 9 0 1 0;
#X connect 10 0 8 1;
#X connect 10 1 9 1;
#X connect 11 0 8 0;
#X connect 13 0 15 0;
#X connect 14 0 11 0;
#X connect 15 0 14 0;
#X connect 16 0 17 0;
#X connect 17 0 18 0;
#X connect 18 0 20 0;
#X connect 19 0 9 0;
#X connect 20 0 19 0;
#X restore 335 -47 pd controla_bola;
#X msg 68 215 dimen 1000 700;
#X obj 337 -26 pack f f;
#X obj 338 -5 prepend add;
#X obj 228 -67 tgl 15 0 empty empty empty 17 7 0 10 -262144 -1 -1 0
1;
#N canvas 655 472 450 300 carrega_rota 0;
#X obj 155 135 textfile;
#X msg 119 102 rewind;
#X msg 54 96 bang;
#X msg 112 136 print;
#X msg 18 157 clear;
#X msg 194 21 read rota_CIC01.txt;
#X obj 144 171 unpack f f;
#X obj 258 132 bng 15 250 50 0 empty empty empty 17 7 0 10 -262144
-1 -1;
#X obj 53 77 metro 10;
#X obj 53 46 inlet;
#X obj 130 191 outlet;
#X obj 199 190 outlet;
#X obj 136 27 sel 1;
#X obj 195 2 loadbang;
#X msg 282 97 read CENTRO.txt;
#X obj 296 152 counter 1;
#X floatatom 297 173 5 0 0 0 - - -;
#X obj 341 36 sel 0 1;
#X obj 296 195 s contador;
#X obj 340 13 r contador;
#X msg 73 6 10;
#X msg 106 42 20;
#X connect 0 0 6 0;
#X connect 0 1 7 0;
#X connect 1 0 0 0;
#X connect 2 0 0 0;
#X connect 3 0 0 0;
#X connect 4 0 0 0;
#X connect 5 0 0 0;
#X connect 6 0 10 0;
#X connect 6 1 11 0;
#X connect 7 0 15 0;
#X connect 7 0 1 0;
#X connect 8 0 2 0;
#X connect 9 0 8 0;
#X connect 9 0 12 0;
#X connect 12 0 1 0;
#X connect 13 0 5 0;
#X connect 14 0 0 0;
#X connect 15 0 16 0;
#X connect 16 0 18 0;
#X connect 17 0 5 0;
#X connect 17 0 20 0;
#X connect 17 1 14 0;
#X connect 17 1 21 0;
#X connect 19 0 17 0;
#X connect 20 0 8 1;
#X connect 21 0 8 1;
#X restore 229 -45 pd carrega_rota;
#X obj 23 131 rectangle 5.75 4;
#N canvas 827 472 450 300 grava 0;
#X obj 165 145 textfile;
#X obj 152 91 inlet;
#X msg 203 90 write CENTRO.txt;
#X msg 218 111 print;
#X connect 1 0 0 0;
#X connect 2 0 0 0;
#X connect 3 0 0 0;
#X restore 337 18 pd grava rota;
#N canvas 827 472 450 300 icone 0;
#X obj 42 15 inlet;
#X obj 31 100 color;
#X obj 31 120 circle 0.25;
#X obj 32 80 pix_texture;
#X obj 30 54 pix_image bike.gif;
#X connect 0 0 4 0;
#X connect 1 0 2 0;
#X connect 3 0 1 0;
#X connect 4 0 3 0;
#X restore 318 190 pd icone;
#N canvas 333 432 450 300 mapas 0;
#X obj 97 -79 sel 0 1;
#X obj 96 -104 r contador;
#X obj 84 63 outlet;
#X msg 150 8 open NovoMundo-Centro.png;
#X msg 99 -14 open CIC-Churchill.png;
#X connect 0 0 4 0;
#X connect 0 1 3 0;
#X connect 1 0 0 0;
#X connect 3 0 2 0;
#X connect 4 0 2 0;
#X restore 37 18 pd mapas;
#X connect 0 0 5 0;
#X connect 2 0 1 0;
#X connect 3 0 1 0;
#X connect 4 0 0 0;
#X connect 5 0 17 0;
#X connect 6 0 8 0;
#X connect 7 0 4 0;
#X connect 8 0 19 0;
#X connect 9 0 8 1;
#X connect 10 0 8 2;
#X connect 11 0 8 1;
#X connect 11 0 13 0;
#X connect 11 1 8 2;
#X connect 11 1 13 1;
#X connect 12 0 1 0;
#X connect 13 0 14 0;
#X connect 14 0 18 0;
#X connect 15 0 16 0;
#X connect 16 0 8 1;
#X connect 16 1 8 2;
#X connect 20 0 4 0;
