#N canvas 81 195 815 545 10;
#X obj -13 -64 cnv 15 400 300 empty empty Atualiza_Mapas 10 20 0 30
-203904 -45076 0;
#X obj -13 130 cnv 15 400 300 empty empty Anima_Icone 10 25 0 30 -204786
-258113 0;
#X obj 12 40 pix_texture;
#X obj 12 19 pix_image;
#X obj 11 197 gemhead 2;
#X obj 12 -25 gemhead 1;
#X obj 59 271 translateXYZ;
#X obj 249 256 hsl 128 15 -5.75 5.75 0 0 empty empty empty -2 -8 0
10 -203904 -1 -1 0 1;
#X obj 229 140 vsl 15 128 -4 4 0 0 empty empty empty 0 -9 0 10 -257985
-1 -1 0 1;
#X obj 121 325 pack f f;
#X obj 122 346 prepend add;
#X obj 240 28 tgl 80 0 LIGA empty LIGA/DESLIGA 0 -10 0 20 -1 -262144
-1 0 1;
#N canvas 355 313 450 300 carrega_rota 0;
#X obj 195 146 textfile;
#X msg 263 203 rewind;
#X msg 116 94 bang;
#X msg 195 95 print;
#X msg 281 91 read rota_CIC01.txt;
#X obj 195 247 unpack f f;
#X obj 274 178 bng 15 250 50 0 empty empty empty 17 7 0 10 -262144
-1 -1;
#X obj 53 77 metro 10;
#X obj 53 46 inlet;
#X obj 181 267 outlet;
#X obj 250 266 outlet;
#X obj 53 97 sel 1;
#X msg 306 109 read CENTRO.txt;
#X obj 313 193 counter 1;
#X floatatom 314 214 5 0 0 0 - - -;
#X obj 341 36 sel 0 1;
#X obj 314 235 s contador;
#X obj 340 13 r contador;
#X msg 148 53 10;
#X msg 116 53 20;
#X obj 302 72 loadbang;
#X text 120 37 abritando tempos para o percurso;
#X text 320 123 escolhendo rotas;
#X text 188 75 testa rota;
#X text 295 176 loop dos mapas;
#X text 51 115 aciona loop;
#X connect 0 0 5 0;
#X connect 0 1 6 0;
#X connect 1 0 0 0;
#X connect 2 0 0 0;
#X connect 3 0 0 0;
#X connect 4 0 0 0;
#X connect 5 0 9 0;
#X connect 5 1 10 0;
#X connect 6 0 13 0;
#X connect 6 0 1 0;
#X connect 7 0 2 0;
#X connect 8 0 7 0;
#X connect 8 0 11 0;
#X connect 11 0 1 0;
#X connect 12 0 0 0;
#X connect 13 0 14 0;
#X connect 14 0 16 0;
#X connect 15 0 4 0;
#X connect 15 0 18 0;
#X connect 15 1 12 0;
#X connect 15 1 19 0;
#X connect 17 0 15 0;
#X connect 18 0 7 1;
#X connect 19 0 7 1;
#X connect 20 0 4 0;
#X restore 82 242 pd carrega_rota;
#X obj 12 64 rectangle 5.75 4;
#N canvas 512 526 280 194 grava 0;
#X obj 22 111 textfile;
#X obj 9 57 inlet;
#X msg 75 77 print;
#X text 35 20 escrever rotas com mouse;
#X msg 60 56 write NOVA-ROTA.txt;
#X text 37 33 modificar nomes de rota;
#X connect 1 0 0 0;
#X connect 2 0 0 0;
#X connect 4 0 0 0;
#X restore 121 369 pd grava rota;
#N canvas 537 472 450 300 icone 0;
#X obj 42 15 inlet;
#X obj 31 100 color;
#X obj 31 120 circle 0.25;
#X obj 32 80 pix_texture;
#X obj 30 54 pix_image bike.gif;
#X connect 0 0 4 0;
#X connect 1 0 2 0;
#X connect 3 0 1 0;
#X connect 4 0 3 0;
#X restore 59 302 pd icone;
#N canvas 405 405 450 300 mapas 0;
#X obj 16 -77 sel 0 1;
#X obj 15 -102 r contador;
#X obj 3 65 outlet;
#X msg 69 10 open NovoMundo-Centro.png;
#X msg 74 -12 open CIC-Churchill.png;
#X text 85 -47 Carrega mapas previamente;
#X text 87 -33 trabalhados com rotas gpx;
#X connect 0 0 4 0;
#X connect 0 1 3 0;
#X connect 1 0 0 0;
#X connect 3 0 2 0;
#X connect 4 0 2 0;
#X restore 76 2 pd mapas;
#X text 248 220 move icone;
#X text 248 235 Eixo X;
#X text 248 132 move icone;
#X text 248 147 Eixo Y;
#X text 71 18 Atualiza os Mapas;
#X text 12 81 Retangulo proporcional;
#X text 181 325 Para gravar novas rotas;
#X text 207 340 Correr o mouse;
#X text 208 356 Pela trilha gpx marcada;
#X text 208 373 e salvar um novo arquivo txt;
#N canvas 526 305 450 300 controla_icone 0;
#X obj -48 196 outlet;
#X obj 10 192 outlet;
#X obj 124 -5 gemmouse;
#X floatatom 124 139 9 0 0 1 X-position - -;
#X floatatom 136 111 8 0 0 1 Y-position - -;
#X floatatom -10 38 2 0 0 1 left-Button - -;
#X obj -48 169 spigot;
#X obj 13 169 spigot;
#X obj -16 60 t f f;
#X floatatom -39 117 5 0 0 0 - - -;
#X obj 140 181 / 1000;
#X obj 141 217 - 5.75;
#X obj 141 200 * 11.5;
#X obj 186 180 / 700;
#X obj 187 199 * 8;
#X obj 187 216 - 4;
#X floatatom 13 145 5 0 0 0 - - -;
#X obj 188 235 * -1;
#X text 217 201 Ajustes de Proporção;
#X connect 2 0 3 0;
#X connect 2 1 4 0;
#X connect 2 2 5 0;
#X connect 3 0 10 0;
#X connect 4 0 13 0;
#X connect 5 0 8 0;
#X connect 6 0 0 0;
#X connect 7 0 1 0;
#X connect 8 0 6 1;
#X connect 8 1 7 1;
#X connect 9 0 6 0;
#X connect 10 0 12 0;
#X connect 11 0 9 0;
#X connect 12 0 11 0;
#X connect 13 0 14 0;
#X connect 14 0 15 0;
#X connect 15 0 17 0;
#X connect 16 0 7 0;
#X connect 17 0 16 0;
#X restore 119 303 pd controla_icone;
#N canvas 273 323 450 300 abre_mapa 0;
#X obj 66 18 inlet;
#X obj 91 128 gemwin;
#X msg 28 68 create \, 1;
#X msg 91 69 destroy;
#X msg 138 41 dimen 1000 700;
#X obj 142 16 loadbang;
#X obj 67 39 sel 1 0;
#X text 146 55 proporcao padrao usada 1000x700;
#X text 5 -2 abre janela gem;
#X connect 0 0 6 0;
#X connect 2 0 1 0;
#X connect 3 0 1 0;
#X connect 4 0 1 0;
#X connect 5 0 4 0;
#X connect 6 0 2 0;
#X connect 6 1 3 0;
#X restore 125 223 pd abre_mapa;
#X obj 87 222 t f f;
#X text 74 -17 pngs dos mapas;
#X obj 87 200 r LIGA;
#X text 394 -65 1) Atualiza Mapas: Muda o png dos mapas anteriormente
;
#X text 394 -51 trabalhados a partir de uma trilha gpx.;
#X text 396 -37 Android - usar o software OSMtracker;
#X text 396 -22 Web - editar online no site bikemap.net;
#X text 395 4 2) Anima Icone: Grava e Carrega rotas do icone animado
;
#X text 394 18 a partir de gesto do mouse gravado num objeto textfile
;
#X connect 2 0 13 0;
#X connect 3 0 2 0;
#X connect 4 0 6 0;
#X connect 5 0 3 0;
#X connect 6 0 15 0;
#X connect 7 0 6 1;
#X connect 8 0 6 2;
#X connect 9 0 10 0;
#X connect 10 0 14 0;
#X connect 12 0 6 1;
#X connect 12 1 6 2;
#X connect 16 0 3 0;
#X connect 27 0 6 1;
#X connect 27 0 9 0;
#X connect 27 1 6 2;
#X connect 27 1 9 1;
#X connect 29 0 12 0;
#X connect 29 1 28 0;
#X connect 31 0 29 0;
