#N canvas 371 198 856 475 36;
#X obj 15 300 sendOSC;
#X floatatom 40 375 5 0 0 0 - - -;
#X msg 36 83 disconnect;
#X floatatom 179 382 5 0 0 0 - - -;
#X obj 798 435 OSC;
#X msg 12 21 connect localhost 3333;
#X floatatom 344 247 5 0 0 0 - - -;
#X obj 542 49 tgl 50 0 empty empty empty 17 7 0 10 -258113 -1 -1 1
1;
#X floatatom 616 55 5 0 0 0 - - -;
#X obj 544 114 metro 200;
#X msg 337 299 send /webosc \$1;
#X obj 429 189 counter 100;
#X connect 0 0 1 0;
#X connect 0 1 3 0;
#X connect 2 0 0 0;
#X connect 5 0 0 0;
#X connect 6 0 10 0;
#X connect 7 0 9 0;
#X connect 8 0 9 1;
#X connect 9 0 11 0;
#X connect 10 0 0 0;
#X connect 11 0 6 0;
